<svg width="97" height="110" viewBox="0 0 97 110" fill="none" xmlns="http://www.w3.org/2000/svg">
<path d="M10.878 26.968C29.252 21.4195 36.584 18.0322 48.7502 9.452H51.354C58.5757 17.1053 68.3638 20.6288 87.0959 26.968C92.5401 46.8834 83.5738 57.441 78.5747 73.2774C76.5713 79.6237 72.1837 99.6714 51.354 101.111C34.7848 101.111 23.6792 83.9498 20.5827 73.2774C15.8487 56.9611 6.39779 45.8963 10.878 26.968Z" fill="#C2BEE1" stroke="#C2BEE1" stroke-width="9"/>
<path d="M6.29921 24.1175C26.628 18.0617 34.74 14.3647 48.2005 5H51.0812C59.0713 13.3531 69.9006 17.1987 90.6256 24.1175C96.6489 45.8538 86.7287 57.3766 81.1978 74.6609C78.9813 81.5874 74.1269 103.468 51.0812 105.039C32.7494 105.039 20.4623 86.3091 17.0364 74.6609C11.7988 56.8528 1.34242 44.7763 6.29921 24.1175Z" stroke="#054376" stroke-width="9"/>
<path d="M55.0094 38.7829V50.5676H67.8417V58.9479H55.0094V69.947H45.5816V58.9479H34.3207V50.5676H45.5816V38.7829H55.0094Z" fill="#EEEEEE"/>
</svg>
